# xmcd
#
# Track frame offsets:
#	150
#	14389
#	30681
#	43596
#	60890
#	73690
#	89004
#	101764
#	116958
#	136370
#	154544
#	167161
#	184240
#
# Disc length: 2666 seconds
#
# Revision: 0
# Processed by: cddbd v1.5.2PL0 Copyright (c) Steve Scherf et al.
# Submitted via: EasyCDDAExtractor 4.6.0.1
#
DISCID=b10a680d
DTITLE=McBride And The Ride - Hurry Sundown and 3 Bonustracks
DYEAR=1993
DGENRE=Country
TTITLE0=Love On The Loose, Heart On The Run
TTITLE1=Hurry Sundown
TTITLE2=Don't Be Mean To Me
TTITLE3=The Promise Land
TTITLE4=Hangin' In Hangin' On
TTITLE5=Tell Me Again
TTITLE6=Cream At The Crop
TTITLE7=Hold On To Me And Let Go Off The Past
TTITLE8=Just The Thought Of Losing You
TTITLE9=Sweetwater
TTITLE10=Somebody Will
TTITLE11=Hi Ho An Empty Pocket
TTITLE12=She's There I'm Here
EXTD=
EXTT0=
EXTT1=
EXTT2=
EXTT3=
EXTT4=
EXTT5=
EXTT6=
EXTT7=
EXTT8=
EXTT9=
EXTT10=
EXTT11=
EXTT12=
PLAYORDER=
